HIERARCHY
ROOT Hips
{
	OFFSET -0.001795 -0.223333 0.028219
	CHANNELS 6 Xposition Yposition Zposition Zrotation Yrotation Xrotation 
	JOINT LeftUpLeg
	{
		OFFSET 0.069520 -0.091406 -0.006815
		CHANNELS 3 Zrotation Yrotation Xrotation
		JOINT LeftLeg
		{
			OFFSET 0.034277 -0.375199 -0.004496
			CHANNELS 3 Zrotation Yrotation Xrotation
			JOINT LeftFoot
			{
				OFFSET -0.013596 -0.397961 -0.043693
				CHANNELS 3 Zrotation Yrotation Xrotation
				JOINT LeftToe
				{
					OFFSET 0.026358 -0.055791 0.119288
					CHANNELS 3 Zrotation Yrotation Xrotation
					End Site
					{
						OFFSET 0.000000 0.000000 0.000000
					}
				}
			}
		}
	}
	JOINT RightUpLeg
	{
		OFFSET -0.067670 -0.090522 -0.004320
		CHANNELS 3 Zrotation Yrotation Xrotation
		JOINT RightLeg
		{
			OFFSET -0.038290 -0.382569 -0.008850
			CHANNELS 3 Zrotation Yrotation Xrotation
			JOINT RightFoot
			{
				OFFSET 0.015774 -0.398415 -0.042312
				CHANNELS 3 Zrotation Yrotation Xrotation
				JOINT RightToe
				{
					OFFSET -0.025372 -0.048144 0.123348
					CHANNELS 3 Zrotation Yrotation Xrotation
					End Site
					{
						OFFSET 0.000000 0.000000 0.000000
					}
				}
			}
		}
	}
	JOINT Spine
	{
		OFFSET -0.002533 0.108963 -0.026696
		CHANNELS 3 Zrotation Yrotation Xrotation
		JOINT Spine1
		{
			OFFSET 0.005487 0.135180 0.001092
			CHANNELS 3 Zrotation Yrotation Xrotation
			JOINT Spine2
			{
				OFFSET 0.001457 0.052922 0.025425
				CHANNELS 3 Zrotation Yrotation Xrotation
				JOINT Neck
				{
					OFFSET -0.002778 0.213870 -0.042857
					CHANNELS 3 Zrotation Yrotation Xrotation
					JOINT Head
					{
						OFFSET 0.005152 0.064970 0.051349
						CHANNELS 3 Zrotation Yrotation Xrotation
						End Site
						{
							OFFSET 0.000000 0.000000 0.000000
						}
					}
				}
				JOINT LeftShoulder
				{
					OFFSET 0.078845 0.121749 -0.034090
					CHANNELS 3 Zrotation Yrotation Xrotation
					JOINT LeftArm
					{
						OFFSET 0.090977 0.030469 -0.008868
						CHANNELS 3 Zrotation Yrotation Xrotation
						JOINT LeftForeArm
						{
							OFFSET 0.259612 -0.012772 -0.027456
							CHANNELS 3 Zrotation Yrotation Xrotation
							JOINT LeftHand
							{
								OFFSET 0.249234 0.008986 -0.001171
								CHANNELS 3 Zrotation Yrotation Xrotation
								End Site
								{
									OFFSET 0.000000 0.000000 0.000000
								}
							}
						}
					}
				}
				JOINT RightShoulder
				{
					OFFSET -0.081759 0.118833 -0.038615
					CHANNELS 3 Zrotation Yrotation Xrotation
					JOINT RightArm
					{
						OFFSET -0.096012 0.032551 -0.009143
						CHANNELS 3 Zrotation Yrotation Xrotation
						JOINT RightForeArm
						{
							OFFSET -0.253742 -0.013329 -0.021401
							CHANNELS 3 Zrotation Yrotation Xrotation
							JOINT RightHand
							{
								OFFSET -0.255298 0.007772 -0.005559
								CHANNELS 3 Zrotation Yrotation Xrotation
								End Site
								{
									OFFSET 0.000000 0.000000 0.000000
								}
							}
						}
					}
				}
			}
		}
	}
}
MOTION
Frames: 16
Frame Time: 0.050000
0.044778 0.948342 -0.004216 -5.416816 -28.417566 12.860510 4.417960 0.393946 -23.915533 -2.933943 1.012768 11.190239 10.202043 18.309185 11.374040 0.000000 0.000000 0.000000 -1.760640 2.408276 -19.412032 5.175175 0.081701 8.988719 -6.206193 -18.282879 9.127798 0.000000 0.000000 0.000000 -2.810502 4.857180 44.318139 -7.148567 1.779203 -21.076016 -7.000419 -2.408978 27.379000 6.069913 -3.986608 -24.886647 0.000000 0.000000 0.000000 -6.465174 -33.311085 15.845434 -7.073276 -42.464418 -0.900302 60.431904 -17.604347 -7.216068 0.000000 0.000000 0.000000 22.611170 7.891656 -1.673222 62.972570 3.914517 -5.993526 29.920136 58.372858 16.630382 0.000000 0.000000 0.000000 
0.045273 0.948134 -0.004100 -5.588223 -29.046551 12.936998 4.520006 0.452399 -23.777128 -2.930721 1.030036 11.159229 10.302826 18.383521 11.555456 0.000000 0.000000 0.000000 -1.719749 2.435496 -19.488553 5.105729 0.107682 9.109148 -6.167741 -18.242187 9.123990 0.000000 0.000000 0.000000 -3.352054 5.300028 44.533115 -6.778352 1.656276 -21.405612 -7.109649 -2.367246 27.519265 5.944602 -3.955427 -24.823344 0.000000 0.000000 0.000000 -5.974524 -33.382523 15.678204 -6.031139 -42.093035 -1.151711 58.933995 -13.986078 -5.158731 0.000000 0.000000 0.000000 23.291469 8.281784 -1.624233 63.147379 3.686554 -6.071843 30.636302 59.127880 17.295318 0.000000 0.000000 0.000000 
0.045940 0.948055 -0.003951 -5.767319 -29.429849 13.096849 4.603299 0.503941 -23.798327 -3.017408 1.051654 10.981188 10.484201 18.560549 11.945969 0.000000 0.000000 0.000000 -1.618845 2.447564 -19.478364 5.010831 0.117928 8.955918 -6.168803 -18.245887 9.098972 0.000000 0.000000 0.000000 -3.307479 5.473186 45.038614 -7.026212 1.700291 -21.682229 -7.097681 -2.861957 27.403944 5.583780 -3.821227 -24.910202 0.000000 0.000000 0.000000 -5.635226 -33.476346 15.660018 -5.350082 -42.135719 -1.276050 57.563519 -12.079669 -4.051624 0.000000 0.000000 0.000000 23.715288 8.877438 -1.563174 63.577735 3.749189 -5.985761 30.506729 59.480647 17.199676 0.000000 0.000000 0.000000 
0.046682 0.947792 -0.003783 -5.988883 -29.947249 13.402470 4.792494 0.614392 -24.040366 -3.100043 1.102174 11.125658 10.585996 18.682136 11.904973 0.000000 0.000000 0.000000 -1.574549 2.525158 -19.830115 5.105627 0.131323 9.154578 -6.243781 -18.425451 9.122413 0.000000 0.000000 0.000000 -3.810498 5.823181 44.956867 -6.598140 1.577600 -21.730721 -7.280262 -2.745580 27.453361 5.587413 -3.784643 -25.423498 0.000000 0.000000 0.000000 -5.334467 -33.457663 15.535876 -5.961532 -42.665015 -1.090043 56.997473 -11.847444 -3.842560 0.000000 0.000000 0.000000 24.408405 9.528912 -1.344745 63.415955 4.090780 -5.685287 29.785229 60.486832 17.130159 0.000000 0.000000 0.000000 
0.047456 0.947717 -0.003642 -6.188640 -30.274368 13.766488 4.971093 0.727319 -24.420944 -3.100650 1.125228 11.285288 10.750696 18.887361 11.989804 0.000000 0.000000 0.000000 -1.451285 2.579760 -20.032015 5.095802 0.132199 8.984011 -6.430393 -18.759136 9.096686 0.000000 0.000000 0.000000 -3.845206 5.999887 45.273482 -6.809354 1.620287 -21.970199 -7.305975 -3.081858 27.534903 5.595813 -3.802069 -25.802748 0.000000 0.000000 0.000000 -5.200211 -33.564449 15.607649 -7.553804 -43.112885 -0.618749 57.158994 -12.863150 -4.245462 0.000000 0.000000 0.000000 24.467759 9.843711 -1.350169 63.853720 4.559935 -5.445764 29.163302 60.994084 16.811241 0.000000 0.000000 0.000000 
0.048175 0.947542 -0.003448 -6.206487 -30.470693 13.947761 4.991462 0.771439 -24.652255 -3.190233 1.161951 11.355375 10.680224 18.732473 12.035949 0.000000 0.000000 0.000000 -1.753873 2.568442 -20.057037 5.205656 0.118662 8.809684 -6.326779 -18.703199 9.428547 0.000000 0.000000 0.000000 -3.970543 6.169754 45.486802 -6.844221 1.627967 -22.008606 -7.291703 -3.198955 27.615441 5.683634 -3.831885 -26.163754 0.000000 0.000000 0.000000 -6.028295 -33.774861 16.104589 -8.921388 -43.618678 -0.280849 57.214970 -14.866568 -5.206289 0.000000 0.000000 0.000000 24.301425 10.142115 -1.184468 64.416259 5.232501 -5.181184 29.014202 61.708454 16.958814 0.000000 0.000000 0.000000 
0.048744 0.947590 -0.003252 -6.397449 -30.784260 14.173521 5.207288 0.860271 -24.673111 -3.165157 1.173401 11.431348 10.698616 18.750972 11.921222 0.000000 0.000000 0.000000 -1.687836 2.604988 -20.185437 5.269347 0.113102 8.642959 -6.401969 -18.965939 9.774668 0.000000 0.000000 0.000000 -4.134713 6.384299 45.679615 -6.704247 1.588826 -22.099781 -7.510172 -3.208042 27.568360 5.978085 -3.919918 -26.748820 0.000000 0.000000 0.000000 -6.338378 -33.739311 16.255122 -11.383740 -43.923249 0.417917 58.134941 -17.366129 -6.441042 0.000000 0.000000 0.000000 24.175333 10.587696 -0.932026 64.857967 5.879229 -4.878788 28.513018 62.369357 16.862282 0.000000 0.000000 0.000000 
0.049058 0.947470 -0.003098 -6.479469 -30.768635 14.403622 5.147608 0.876500 -24.949373 -3.084998 1.183797 11.806420 10.541338 18.534930 11.671556 0.000000 0.000000 0.000000 -1.732679 2.605884 -20.193952 5.461119 0.087413 8.397322 -6.430207 -19.074207 9.960606 0.000000 0.000000 0.000000 -4.030488 6.426373 46.039693 -6.828038 1.615560 -22.301147 -7.521452 -3.619327 27.519533 6.018955 -3.938561 -27.087768 0.000000 0.000000 0.000000 -6.985758 -33.681231 16.595152 -12.783181 -44.158389 0.804873 58.738693 -19.684644 -7.625918 0.000000 0.000000 0.000000 23.808611 10.871434 -0.824021 65.492510 6.520800 -4.620356 27.997384 62.286771 16.438430 0.000000 0.000000 0.000000 
0.049175 0.947410 -0.002918 -6.559272 -30.814382 14.337164 5.216495 0.888132 -24.833180 -3.078421 1.212555 12.105209 10.347010 18.337582 11.100531 0.000000 0.000000 0.000000 -1.602893 2.565990 -19.932424 5.402572 0.087428 8.255525 -6.255979 -18.803158 10.054528 0.000000 0.000000 0.000000 -4.095136 6.474063 46.040970 -6.930778 1.654625 -22.054545 -7.504623 -3.526411 27.420196 6.123905 -3.930544 -27.384880 0.000000 0.000000 0.000000 -7.109145 -33.922707 16.737539 -13.869468 -44.193259 1.129185 59.717211 -21.294667 -8.595096 0.000000 0.000000 0.000000 23.255999 11.214839 -0.466332 66.270696 7.412429 -4.285560 27.130925 62.272886 15.979742 0.000000 0.000000 0.000000 
0.049191 0.947012 -0.002558 -6.506721 -30.689075 13.986695 5.135021 0.818197 -24.400209 -3.004605 1.207853 12.281411 10.186992 18.103415 11.021776 0.000000 0.000000 0.000000 -1.652255 2.461234 -19.384153 5.519788 0.067652 8.056860 -6.368482 -18.940408 10.086621 0.000000 0.000000 0.000000 -4.033871 6.468695 46.292978 -6.876457 1.640651 -22.148749 -7.525396 -3.697239 27.647542 6.363076 -3.994342 -28.137513 0.000000 0.000000 0.000000 -6.947691 -33.624505 16.512982 -14.549001 -44.423305 1.372888 59.814799 -22.472702 -9.195339 0.000000 0.000000 0.000000 23.089157 11.386963 -0.376400 66.576941 8.435828 -3.778831 25.436820 61.612034 14.777075 0.000000 0.000000 0.000000 
0.049201 0.946305 -0.001938 -6.558048 -30.631924 13.566205 5.237848 0.800098 -23.963848 -3.122412 1.264678 12.509920 10.003477 17.910767 10.561294 0.000000 0.000000 0.000000 -1.801423 2.348060 -18.809513 5.837854 0.034703 7.872661 -6.350264 -18.904627 10.248290 0.000000 0.000000 0.000000 -3.885866 6.425092 46.536346 -7.022102 1.686628 -21.976820 -7.371124 -3.696246 27.515253 6.555650 -4.076009 -28.158404 0.000000 0.000000 0.000000 -7.206365 -33.698615 16.619581 -14.699764 -44.067825 1.364430 59.266786 -23.401341 -9.640728 0.000000 0.000000 0.000000 22.646887 11.558816 -0.144344 67.161058 9.119021 -3.501992 24.296459 61.071158 14.016129 0.000000 0.000000 0.000000 
0.049277 0.945709 -0.001070 -6.550989 -30.854790 13.229627 5.388165 0.811536 -23.457727 -3.423940 1.384559 12.683263 10.176772 18.207486 10.548246 0.000000 0.000000 0.000000 -1.909064 2.271254 -18.382559 5.968469 0.030731 7.873778 -6.426427 -19.027604 10.355293 0.000000 0.000000 0.000000 -3.837486 6.503471 46.783094 -7.130767 1.703864 -22.098810 -7.237331 -3.755089 27.485565 6.471683 -4.032116 -28.292824 0.000000 0.000000 0.000000 -7.421008 -33.191827 16.482167 -15.960035 -43.375834 1.623589 59.988128 -24.456026 -10.270167 0.000000 0.000000 0.000000 22.173600 11.868469 0.091901 67.667262 9.671301 -3.287460 24.311741 60.525687 13.863827 0.000000 0.000000 0.000000 
0.049420 0.945350 -0.000202 -6.410153 -30.871900 12.870192 5.299621 0.731963 -22.876016 -3.593926 1.415393 12.442358 10.272097 18.407880 10.482649 0.000000 0.000000 0.000000 -2.114848 2.198536 -18.023186 6.096396 0.017533 7.771637 -6.404718 -19.010264 10.538145 0.000000 0.000000 0.000000 -3.557172 6.343460 46.757730 -7.179576 1.721407 -21.999649 -7.113007 -3.690896 27.602247 6.424104 -4.031853 -28.222394 0.000000 0.000000 0.000000 -7.868890 -32.809691 16.484273 -17.040926 -42.916815 1.813193 60.535382 -25.593449 -10.949557 0.000000 0.000000 0.000000 21.773553 11.758323 0.116584 67.732441 9.886102 -3.253843 24.865394 60.545616 14.215763 0.000000 0.000000 0.000000 
0.049644 0.945258 0.000385 -6.409444 -30.852493 12.762065 5.420781 0.737440 -22.580693 -3.843154 1.484485 12.367480 10.435802 18.671456 10.593785 0.000000 0.000000 0.000000 -2.148574 2.194240 -18.002774 5.976990 0.028310 7.870298 -6.277605 -18.895185 10.811001 0.000000 0.000000 0.000000 -3.217615 6.125614 46.629801 -7.173394 1.723056 -21.863332 -7.060626 -3.575149 27.605026 6.626744 -4.127967 -28.257286 0.000000 0.000000 0.000000 -8.511754 -32.217544 16.499594 -18.412933 -42.216981 2.003163 61.634315 -27.143968 -11.946429 0.000000 0.000000 0.000000 21.432919 11.505086 0.046008 67.611427 9.545735 -3.498498 26.085712 61.073702 15.072903 0.000000 0.000000 0.000000 
0.049774 0.945405 0.000505 -6.143501 -30.733580 12.499759 5.236625 0.656587 -22.302400 -4.091029 1.547667 12.282718 10.701448 19.127826 10.719907 0.000000 0.000000 0.000000 -2.225149 2.160140 -17.834280 5.758803 0.040039 7.866819 -6.204944 -18.815497 10.985456 0.000000 0.000000 0.000000 -3.091077 5.978528 46.428705 -7.123794 1.719305 -21.569359 -6.902415 -3.349270 27.861892 7.121710 -4.310610 -28.666741 0.000000 0.000000 0.000000 -8.594867 -31.857787 16.327991 -19.702711 -41.713730 2.225215 63.120546 -28.130870 -12.769781 0.000000 0.000000 0.000000 20.801246 10.976416 -0.050352 67.309918 9.410418 -3.699769 27.836487 62.051173 16.494219 0.000000 0.000000 0.000000 
0.049928 0.945462 0.000249 -5.977046 -30.436203 12.250409 5.329736 0.623046 -21.884445 -4.426043 1.601534 11.930340 10.813759 19.319157 10.884349 0.000000 0.000000 0.000000 -2.235880 2.128919 -17.678491 5.521968 0.049443 7.861671 -6.092785 -18.702924 11.253591 0.000000 0.000000 0.000000 -3.038979 5.857417 46.335061 -6.678303 1.615751 -21.300220 -6.937982 -3.062358 27.850632 7.672211 -4.456472 -29.271580 0.000000 0.000000 0.000000 -8.960496 -31.436412 16.237037 -20.477709 -41.294208 2.283376 64.123392 -28.855334 -13.391407 0.000000 0.000000 0.000000 20.629578 10.632132 -0.077699 67.068581 8.922293 -3.999430 29.132107 63.205741 17.787103 0.000000 0.000000 0.000000 
